<?xml version="1.0" encoding="utf-8"?>
<!-- Generator: Adobe Illustrator 21.0.2, SVG Export Plug-In . SVG Version: 6.00 Build 0)  -->
<svg version="1.1" id="Layer_1" xmlns="http://www.w3.org/2000/svg" xmlns:xlink="http://www.w3.org/1999/xlink" x="0px" y="0px"
	 viewBox="0 0 1141 623" style="enable-background:new 0 0 1141 623;" xml:space="preserve">
<style type="text/css">
	.st0{fill:#333333;}
</style>
<title>WOMEN WHO DESIGN</title>
<desc>Created with Sketch.</desc>
<path id="WOMEN-WHO-DESIGN" class="st0" d="M82.5,299.7H24.4L0.2,3.6h52.1l6,193.4L66.6,3.6h47l8.8,194.6l6-194.6h48.6l-24.3,296.1
	H95.7l-6.4-168.7L82.5,299.7z M300.9,59.3v185.9c0,18.3-4.7,32.4-14.1,42.4c-9.4,9.9-22.5,14.9-39.2,14.9h-8.4
	c-17.5,0-30.8-5-40-14.9s-13.7-24.1-13.7-42.4V59.3c0-39,17.9-58.5,53.7-58.5h8C282.9,0.8,300.9,20.3,300.9,59.3z M249.1,249.5V53.7
	c0-5.8-2-8.8-6-8.8c-3.7,0-5.6,2.9-5.6,8.8v195.8c0,5.3,1.9,8,5.6,8C247.1,257.5,249.1,254.8,249.1,249.5z M315.8,299.7V3.6h57.7
	l8.8,143.7L391,3.6h56.1v296.1H405V134.1l-14.7,165.6h-17.9l-15.1-165.6v165.6H315.8z M462.1,3.6h85.2v45.4h-35.8v72h30.2v47h-30.2
	v85.6h37v46.2h-86.4V3.6z M562.6,3.6h50.9L633,164L632.6,3.6h41.8v296.1h-46.6l-23.5-177.5l0.4,177.5h-42.2V3.6z M82.5,620H24.4
	L0.2,323.9h52.1l6,193.4l8.4-193.4h47l8.8,194.6l6-194.6h48.6L152.6,620H95.7l-6.4-168.7L82.5,620z M187.4,620V323.9H238v115h10.7
	v-115h50.1V620h-50.1V491.1H238V620H187.4z M429.2,379.6v185.9c0,18.3-4.7,32.4-14.1,42.4c-9.4,9.9-22.5,14.9-39.2,14.9h-8.4
	c-17.5,0-30.8-5-40-14.9c-9.2-9.9-13.7-24.1-13.7-42.4V379.6c0-39,17.9-58.5,53.7-58.5h8C411.3,321.1,429.2,340.6,429.2,379.6z
	 M377.5,569.9V374.1c0-5.8-2-8.8-6-8.8c-3.7,0-5.6,2.9-5.6,8.8v195.8c0,5.3,1.9,8,5.6,8C375.5,577.8,377.5,575.2,377.5,569.9z
	 M482.2,620V323.9h72c26,0,39,14.2,39,42.6V575c0,15.1-3.4,26.4-10.3,33.8C576,616.3,566.7,620,555,620H482.2z M531.6,364.5v213.7
	h4.8c4,0,6-3.3,6-9.9V373.7c0-6.1-2-9.2-6-9.2H531.6z M608.2,323.9h85.2v45.4h-35.8v72h30.2v47h-30.2v85.6h37V620h-86.4V323.9z
	 M768.4,622.8h-11.5c-32.9,0-49.4-15.3-49.4-45.8v-77.6h49.4v74c0,5.3,1.7,8,5.2,8c3.7,0,5.6-2.8,5.6-8.4v-57.7
	c0-5-0.5-8.9-1.6-11.5c-1.1-2.7-3.4-5.6-7.2-8.8L733,472.8c-16.2-13.5-24.3-31.2-24.3-52.9v-52.5c0-30.8,16.8-46.2,50.5-46.2h11.5
	c31.8,0,47.8,14.1,47.8,42.2v65.3H770v-62.9c0-4.2-1.7-6.4-5.2-6.4s-5.2,2.1-5.2,6.4v50.5c0,6.1,2.7,11.7,8,16.7l25.5,22.3
	c10.3,8.5,17.5,16.8,21.5,24.9c4,8.1,6,18.5,6,31.2v58.9C820.5,605.3,803.2,622.8,768.4,622.8z M885.2,323.9V620h-50.5V323.9H885.2z
	 M940.8,622.8h-1.2c-12.7,0-22.5-4.6-29.3-13.9c-6.8-9.3-10.1-21-10.1-35V372.5c0-15.1,4.2-27.5,12.7-37c8.5-9.6,22-14.3,40.6-14.3
	h6.8c18.6,0,31.8,4.4,39.8,13.3c8,8.9,11.9,20.2,11.9,34v66.5h-48.6v-64.5c0-5-2-7.6-6-7.6c-3.7,0-5.6,2.5-5.6,7.6v202.2
	c0,6.1,2.4,9.2,7.2,9.2s7.2-3.1,7.2-9.2v-88.4h-10.3v-38.6h58.1V620h-33.8c-3.4-12.2-5.2-18.4-5.2-18.7
	C966,615.6,954.6,622.8,940.8,622.8z M1029,323.9h50.9l19.5,160.4l-0.4-160.4h41.8V620h-46.6l-23.5-177.5l0.4,177.5H1029V323.9z"/>
</svg>
